<svg width="320" height="240" viewBox="0 0 320 240" fill="none" xmlns="http://www.w3.org/2000/svg">
<g clip-path="url(#clip0_89_1323)">
<path d="M285.73 84.1H193.92C188.39 84.1 183.91 87.97 183.91 92.74V165.66C183.91 170.43 188.39 174.3 193.92 174.3H285.73C291.26 174.3 295.74 170.43 295.74 165.66V92.74C295.74 87.97 291.26 84.1 285.73 84.1Z" fill="black" stroke="black" stroke-width="0.35" stroke-miterlimit="10"/>
<path d="M160 127.04V196.65C160 202.43 154.56 207.13 147.85 207.13H42.26C35.56 207.13 30.12 202.44 30.12 196.65V127.04C30.12 121.26 35.55 116.56 42.26 116.56H147.85C154.56 116.56 160 121.25 160 127.04Z" fill="black" stroke="black" stroke-width="0.35" stroke-miterlimit="10"/>
<path d="M187.51 83.63V153.24C187.51 159.02 182.07 163.72 175.36 163.72H98.31C91.61 163.72 86.17 159.03 86.17 153.24V83.63C86.17 77.85 91.6 73.15 98.31 73.15H175.36C182.06 73.15 187.51 77.84 187.51 83.63Z" fill="black" stroke="black" stroke-width="0.35" stroke-miterlimit="10"/>
<path d="M171.74 78.74V148.35C171.74 154.13 166.3 158.83 159.6 158.83H82.55C75.85 158.83 70.41 154.14 70.41 148.35V78.74C70.41 72.96 75.84 68.26 82.55 68.26H159.6C166.3 68.26 171.74 72.95 171.74 78.74Z" fill="white" stroke="#1E1E1E" stroke-width="0.35" stroke-miterlimit="10"/>
<path d="M171.74 78.74V83.8H70.42V78.74C70.42 72.96 75.85 68.26 82.56 68.26H159.61C166.31 68.26 171.75 72.95 171.75 78.74H171.74Z" fill="#A3E2E7" stroke="black" stroke-width="0.35" stroke-miterlimit="10"/>
<path d="M131.66 94.68V64.99C131.66 56.73 134.05 52.78 137.75 52.4C141.45 52.02 143.19 55.69 143.19 55.69C143.19 55.69 143.19 55.98 143.19 50.43C143.19 44.88 146.34 43.39 149.83 43.29C153.32 43.2 154.84 46.21 154.84 46.21C154.84 46.21 155.27 42.46 160.28 42.83C165.29 43.21 166.41 47.92 165.95 51.74C165.95 51.74 173.13 51.56 174.55 56.08C175.96 60.59 176.88 68.57 175.2 92.81C173.53 117.05 142.54 138.63 142.54 138.63L131.66 94.69H131.68V94.67L131.66 94.68Z" fill="black" stroke="black" stroke-width="0.35" stroke-miterlimit="10"/>
<path d="M130.05 86.66V56.97C130.05 48.71 132.44 44.76 136.14 44.38C139.83 44 141.58 47.67 141.58 47.67C141.58 47.67 141.58 47.96 141.58 42.41C141.58 36.86 144.74 35.37 148.22 35.27C151.71 35.18 153.23 38.19 153.23 38.19C153.23 38.19 153.66 34.44 158.67 34.81C163.68 35.18 164.79 39.9 164.34 43.72C164.34 43.72 171.52 43.54 172.94 48.06C174.35 52.57 175.27 60.55 173.59 84.79C171.92 109.02 140.93 130.61 140.93 130.61L130.05 86.67H130.07V86.65L130.05 86.66Z" fill="white" stroke="#1E1E1E" stroke-width="0.35" stroke-miterlimit="10"/>
<path d="M141.6 47.67C141.6 47.67 143.52 52.14 143.34 62.32L141.6 47.67Z" fill="white"/>
<path d="M141.6 47.67C141.6 47.67 141.87 51.43 141.7 61.61" stroke="#1E1E1E" stroke-width="0.35" stroke-miterlimit="10"/>
<path d="M153.24 38.1899C153.24 38.1899 153.56 52.6299 152.73 57.5499L153.24 38.1899Z" fill="white"/>
<path d="M153.24 38.1899C153.24 38.1899 153.56 52.6299 152.73 57.5499" stroke="#1E1E1E" stroke-width="0.35" stroke-miterlimit="10"/>
<path d="M164.35 43.71L164.16 60.25" stroke="#1E1E1E" stroke-width="0.35" stroke-miterlimit="10"/>
<path d="M286.89 82.29V155.21C286.89 159.98 282.4 163.85 276.88 163.85H185.08C179.54 163.85 175.07 159.97 175.07 155.21V82.29C175.07 77.52 179.54 73.65 185.08 73.65H276.88C282.41 73.65 286.89 77.53 286.89 82.29Z" fill="white" stroke="#1E1E1E" stroke-width="0.35" stroke-miterlimit="10"/>
<path d="M286.89 82.29V88.52H175.06V82.29C175.06 77.52 179.53 73.65 185.07 73.65H276.87C282.4 73.65 286.88 77.53 286.88 82.29H286.89Z" fill="#A3E2E7" stroke="black" stroke-width="0.35" stroke-miterlimit="10"/>
<path d="M151.24 116.03V185.64C151.24 191.42 145.8 196.12 139.1 196.12H33.5C26.8 196.12 21.36 191.43 21.36 185.64V116.03C21.36 110.25 26.79 105.55 33.5 105.55H139.09C145.79 105.55 151.23 110.24 151.23 116.03H151.24Z" fill="white" stroke="#1E1E1E" stroke-width="0.35" stroke-miterlimit="10"/>
<path d="M151.24 116.03V121.09H21.36V116.03C21.36 110.25 26.79 105.55 33.5 105.55H139.09C145.79 105.55 151.23 110.24 151.23 116.03H151.24Z" fill="#A3E2E7" stroke="black" stroke-width="0.35" stroke-miterlimit="10"/>
<path d="M31.58 115.46C33.08 115.46 34.29 114.41 34.29 113.12C34.29 111.83 33.07 110.78 31.58 110.78C30.09 110.78 28.87 111.83 28.87 113.12C28.87 114.41 30.09 115.46 31.58 115.46Z" fill="white" stroke="#1E1E1E" stroke-width="0.35" stroke-miterlimit="10"/>
<path d="M40.2701 115.46C41.7701 115.46 42.9801 114.41 42.9801 113.12C42.9801 111.83 41.7601 110.78 40.2701 110.78C38.7801 110.78 37.5601 111.83 37.5601 113.12C37.5601 114.41 38.7801 115.46 40.2701 115.46Z" fill="white" stroke="#1E1E1E" stroke-width="0.35" stroke-miterlimit="10"/>
<path d="M48.96 115.46C50.46 115.46 51.67 114.41 51.67 113.12C51.67 111.83 50.45 110.78 48.96 110.78C47.47 110.78 46.25 111.83 46.25 113.12C46.25 114.41 47.47 115.46 48.96 115.46Z" fill="white" stroke="#1E1E1E" stroke-width="0.35" stroke-miterlimit="10"/>
<path d="M151.24 116.03V121.49C142.33 130.01 118.15 145.52 53.17 162.29C38.76 166 28.46 167.29 21.36 166.8L42.55 142.29C49.68 132.9 52.47 138.03 57.58 132.86L139.1 105.58C145.8 105.58 151.24 110.27 151.24 116.06H151.25L151.24 116.03Z" fill="black" stroke="black" stroke-width="0.35" stroke-miterlimit="10"/>
<path d="M80.62 78.16C82.12 78.16 83.33 77.11 83.33 75.82C83.33 74.53 82.11 73.48 80.62 73.48C79.13 73.48 77.91 74.53 77.91 75.82C77.91 77.11 79.13 78.16 80.62 78.16Z" fill="white" stroke="#1E1E1E" stroke-width="0.35" stroke-miterlimit="10"/>
<path d="M89.32 78.16C90.82 78.16 92.03 77.11 92.03 75.82C92.03 74.53 90.81 73.48 89.32 73.48C87.83 73.48 86.61 74.53 86.61 75.82C86.61 77.11 87.83 78.16 89.32 78.16Z" fill="white" stroke="#1E1E1E" stroke-width="0.35" stroke-miterlimit="10"/>
<path d="M98.01 78.16C99.51 78.16 100.72 77.11 100.72 75.82C100.72 74.53 99.5 73.48 98.01 73.48C96.52 73.48 95.3 74.53 95.3 75.82C95.3 77.11 96.52 78.16 98.01 78.16Z" fill="white" stroke="#1E1E1E" stroke-width="0.35" stroke-miterlimit="10"/>
<path d="M203.45 82.82C204.95 82.82 206.16 81.77 206.16 80.48C206.16 79.19 204.94 78.14 203.45 78.14C201.96 78.14 200.74 79.19 200.74 80.48C200.74 81.77 201.96 82.82 203.45 82.82Z" fill="white" stroke="#1E1E1E" stroke-width="0.35" stroke-miterlimit="10"/>
<path d="M212.14 82.82C213.64 82.82 214.85 81.77 214.85 80.48C214.85 79.19 213.63 78.14 212.14 78.14C210.65 78.14 209.43 79.19 209.43 80.48C209.43 81.77 210.65 82.82 212.14 82.82Z" fill="white" stroke="#1E1E1E" stroke-width="0.35" stroke-miterlimit="10"/>
<path d="M220.84 82.82C222.34 82.82 223.55 81.77 223.55 80.48C223.55 79.19 222.33 78.14 220.84 78.14C219.35 78.14 218.13 79.19 218.13 80.48C218.13 81.77 219.35 82.82 220.84 82.82Z" fill="white" stroke="#1E1E1E" stroke-width="0.35" stroke-miterlimit="10"/>
<path d="M107.59 59.1C107.59 59.1 104.1 61.4 96.51 59.1H107.59Z" fill="white"/>
<path d="M107.59 59.1C107.59 59.1 104.1 61.4 96.51 59.1" stroke="#1E1E1E" stroke-width="0.35" stroke-miterlimit="10"/>
<path d="M109.85 34.13C109.85 34.13 120.11 41.21 122.98 46.7L109.85 34.13Z" fill="white"/>
<path d="M109.85 34.13C109.85 34.13 120.11 41.21 122.98 46.7" stroke="#1E1E1E" stroke-width="0.35" stroke-miterlimit="10"/>
<path d="M159.72 29.69C159.72 29.69 163 20.66 169.57 17.3" stroke="white" stroke-width="0.59" stroke-miterlimit="10" stroke-linecap="round"/>
<path d="M188.04 41.03C188.04 41.03 184.14 45.81 183.94 49.7L188.04 41.03Z" fill="white"/>
<path d="M188.04 41.03C188.04 41.03 184.14 45.81 183.94 49.7" stroke="#1E1E1E" stroke-width="0.35" stroke-miterlimit="10"/>
<path d="M207.33 47.9301C207.33 47.9301 208.15 54.6601 202.4 56.4301L207.33 47.9301Z" fill="white"/>
<path d="M207.33 47.9301C207.33 47.9301 208.15 54.6601 202.4 56.4301" stroke="#1E1E1E" stroke-width="0.35" stroke-miterlimit="10"/>
<path d="M145.09 65.16C145.73 65 146.43 64.91 147.21 64.91C151.45 64.91 153 67.63 152.62 79.87C152.26 91.42 153.91 102.54 146.89 110.15C139.87 117.76 85.34 150.87 57.43 155.94C29.51 161.01 39.09 125.27 39.09 125.27C39.09 125.27 101.59 99.45 107.43 95.25C113.26 91.05 113.87 79.94 113.76 76.77C113.59 72.22 116.01 70.03 122.54 70.17C122.54 70.17 122.13 63.35 125.7 61.49C129.79 59.36 133.76 62.56 133.76 62.56C133.76 62.56 135.29 58.93 140.75 59.55C145.24 60.04 145.12 65.14 145.12 65.14H145.11L145.09 65.16Z" fill="white" stroke="#1E1E1E" stroke-width="0.35" stroke-miterlimit="10"/>
<path d="M119.94 85.34C119.94 85.34 122.18 76.48 122.63 70.3L119.94 85.34Z" fill="white"/>
<path d="M119.94 85.34C119.94 85.34 122.18 76.48 122.63 70.3" stroke="#1E1E1E" stroke-width="0.35" stroke-miterlimit="10"/>
<path d="M130.84 84.71C130.84 84.71 132.43 73.15 132.41 68.08C132.41 65.97 132.84 64.17 133.7 62.77" fill="white"/>
<path d="M130.84 84.71C130.84 84.71 132.43 73.15 132.41 68.08C132.41 65.97 132.84 64.17 133.7 62.77" stroke="#1E1E1E" stroke-width="0.35" stroke-miterlimit="10"/>
<path d="M141.26 84.14V70.61C141.26 68.29 142.52 66.25 144.8 65.29" fill="white"/>
<path d="M141.26 84.14V70.61C141.26 68.29 142.52 66.25 144.8 65.29" stroke="#1E1E1E" stroke-width="0.35" stroke-miterlimit="10"/>
<path d="M190.79 128.66C190.79 128.66 250.26 157.51 251.1 157.51C251.94 157.51 265.56 152.45 269.34 139.42C273.12 126.4 270.81 117.73 270.81 117.73L210.13 90.95L190.81 128.67H190.8L190.79 128.66Z" fill="#C7E800" stroke="black" stroke-width="0.35" stroke-miterlimit="10"/>
<path d="M206.52 112.09C211.86 101.68 213.45 92.1899 210.08 90.9099C206.71 89.6199 199.66 97.0199 194.32 107.44C188.98 117.85 187.4 127.34 190.76 128.62C194.12 129.9 201.18 122.51 206.52 112.09Z" fill="black" stroke="black" stroke-width="0.35" stroke-miterlimit="10"/>
<path d="M198.26 124.82C198.26 124.82 185.7 120.45 172.76 113.56C158.92 106.22 160.71 93.42 160.15 81.75C159.88 77.24 160.53 67.26 161.78 65.35C165.31 61.85 167.49 63.87 167.49 63.87C167.49 63.87 167.1 59.57 170.5 57.09C173.9 54.61 176.9 58.22 176.9 60.67C176.9 60.67 177.38 53.93 182.36 54.27C186.31 54.46 186.12 58.69 186.12 63.12C186.12 63.12 186.5 57.28 190.26 57.47C195.1 57.37 195.85 63.48 195.72 68.67C195.59 73.86 195.72 84.76 195.72 84.76L211.86 94.7C211.86 94.7 212.51 109.6 198.26 124.84V124.82Z" fill="white" stroke="#1E1E1E" stroke-width="0.35" stroke-miterlimit="10"/>
<path d="M167.43 79.73V63.37" stroke="#1E1E1E" stroke-width="0.35" stroke-miterlimit="10"/>
<path d="M176.85 59.73V76.48" stroke="#1E1E1E" stroke-width="0.35" stroke-miterlimit="10"/>
<path d="M191.2 66.91C191.2 66.91 189.06 71.01 189.66 81.63L191.2 66.91Z" fill="white"/>
<path d="M186.12 61.33C186.1 61.74 186.12 65.94 185.93 77.24" stroke="#1E1E1E" stroke-width="0.35" stroke-miterlimit="10"/>
<path d="M21.5601 129.27C21.5601 129.27 38.8301 123.39 39.8101 123.19C40.7801 122.98 55.3701 134.74 57.5601 150.69C59.7501 166.64 55.8601 174.41 55.8601 174.41L21.5701 179.02V129.28H21.5601V129.27Z" fill="#C7E800" stroke="black" stroke-width="0.35" stroke-miterlimit="10"/>
<path d="M60.91 65.98C70.79 58.17 75.46 47.78 71.34 42.78C67.23 37.78 55.88 40.06 46 47.88C36.12 55.69 31.45 66.08 35.57 71.08C39.68 76.08 51.03 73.8 60.91 65.98Z" fill="#C7E800" stroke="black" stroke-width="0.34" stroke-miterlimit="10"/>
<path d="M63.9701 63.38C71.7101 55.98 75.0101 47.25 71.3301 42.79C69.0101 39.97 64.4 39.46 59.05 40.94L63.9701 63.38Z" fill="black" stroke="black" stroke-width="0.34" stroke-miterlimit="10"/>
<path d="M59.45 63.3901C69.11 55.5801 73.67 45.2001 69.64 40.1901C65.62 35.1901 54.53 37.4701 44.86 45.2901C35.2 53.1001 30.64 63.4901 34.67 68.4901C38.69 73.4901 49.78 71.2101 59.45 63.3901Z" fill="#C7E800" stroke="black" stroke-width="0.34" stroke-miterlimit="10"/>
<path d="M228.81 215.57C225.32 222.53 212.59 222.93 200.35 216.42C199.93 216.2 199.5 215.98 199.1 215.74C187.64 209.17 181.17 198.8 184.55 192.06C187.92 185.33 199.91 184.74 211.73 190.54C212.16 190.75 212.58 190.97 213 191.2C225.24 197.71 232.31 208.59 228.81 215.58V215.57Z" fill="white" stroke="black" stroke-width="0.35" stroke-miterlimit="10"/>
<path d="M228.81 215.57C225.32 222.53 212.59 222.93 200.35 216.42C199.93 216.2 199.5 215.98 199.1 215.74L211.75 190.54C212.18 190.75 212.6 190.97 213.02 191.2C225.26 197.71 232.33 208.59 228.83 215.58H228.81V215.57Z" fill="black" stroke="black" stroke-width="0.35" stroke-miterlimit="10"/>
<path d="M211.59 194.02C199.37 187.53 186.63 187.92 183.13 194.88C179.63 201.85 186.72 212.75 198.94 219.24C211.16 225.73 223.9 225.33 227.4 218.38C230.9 211.43 223.82 200.51 211.59 194.01V194.02Z" fill="#A3E2E7" stroke="black" stroke-width="0.35" stroke-miterlimit="10"/>
<path d="M147.53 96.25C147.53 96.25 147.58 88.23 147.53 85.14C147.46 80.85 150.73 79.12 153.27 79.12C158.35 79.12 159.2 82.23 159.2 89.85C159.2 105.27 157.79 110.46 118.26 129.38" fill="white"/>
<path d="M147.53 96.25C147.53 96.25 147.58 88.23 147.53 85.14C147.46 80.85 150.73 79.12 153.27 79.12C158.35 79.12 159.2 82.23 159.2 89.85C159.2 105.27 157.79 110.46 118.26 129.38" stroke="black" stroke-width="0.35" stroke-miterlimit="10"/>
<path d="M195.69 87.59V71.21C195.69 69.05 197.48 67.45 200.49 67.73C203.5 68.01 205.57 69.89 205.57 74.6V92.67" fill="white"/>
<path d="M195.69 87.59V71.21C195.69 69.05 197.48 67.45 200.49 67.73C203.5 68.01 205.57 69.89 205.57 74.6V92.67" stroke="#1E1E1E" stroke-width="0.35" stroke-miterlimit="10"/>
</g>
<defs>
<clipPath id="clip0_89_1323">
<rect width="274.92" height="207.03" fill="white" transform="translate(21 17)"/>
</clipPath>
</defs>
</svg>
